# xmcd
#
# Track frame offsets:
#	150
#	11332
#	22447
#	36470
#	49507
#	66967
#	78937
#	95460
#	106632
#	120545
#	136080
#	147717
#
# Disc length: 2216 seconds
#
# Revision: 0
# Processed by: cddbd v1.5.2PL0 Copyright (c) Steve Scherf et al.
# Submitted via: EasyCDDAExtractor 16.0.6.1
#
DISCID=9f08a60c
DTITLE=Αλεξίου Χάρις - Τα τραγούδια της Χαρούλας-Μ. Λοΐζος
DYEAR=1988
DGENRE=Λαϊκή
TTITLE0=Γύφτισσα τον εβύζαξε [Μ. Ρασούλη]
TTITLE1=Την όγδοη μέρα [Μ. Ρασούλη]
TTITLE2=Σε πέντε ώρες ξημερώνει Κυριακή [Πυθαγόρα]
TTITLE3=Πες μου, πώς γίνεται [Μ. Ρασούλη]
TTITLE4=Όλα σε θυμίζουν [Μ. Ρασούλη]
TTITLE5=Τι να πω [Πυθαγόρα]
TTITLE6=Ο φαντάρος [Μ. Ρασούλη]
TTITLE7=Έκανα την μοίρα φίλη [Μ. Ρασούλη]
TTITLE8=Και εγώ σαν πόλη [Μ. Ρασούλη]
TTITLE9=Μέσ' στο πλήθος [Μ. Ρασούλη]
TTITLE10=Τέλι τέλι τέλι [Πυθαγόρα]
TTITLE11=Τίποτα δεν πάει χαμένο [Μ. Ρασούλη]
EXTD=
EXTT0=
EXTT1=
EXTT2=
EXTT3=
EXTT4=
EXTT5=
EXTT6=
EXTT7=
EXTT8=
EXTT9=
EXTT10=
EXTT11=
PLAYORDER=
